<?xml version="1.0" encoding="UTF-8"?>
<!DOCTYPE svg PUBLIC "-//W3C//DTD SVG 1.1//EN" "http://www.w3.org/Graphics/SVG/1.1/DTD/svg11.dtd">
<svg version="1.1" xmlns="http://www.w3.org/2000/svg" xmlns:xlink="http://www.w3.org/1999/xlink" x="0" y="0" width="436.496" height="551.175" viewBox="0, 0, 436.496, 551.175">
  <g id="Layer_1">
    <path d="M91.994,310.473 L30.744,296.587 C30.744,296.587 28.508,287.651 19.123,284.067 C9.748,280.493 -2.791,312.222 11.496,326.084 C25.822,339.956 80.334,342.646 80.334,342.646" fill="#E98647" id="path833"/>
    <path d="M91.994,310.473 L30.744,296.587 C30.744,296.587 28.508,287.651 19.123,284.067 C9.748,280.493 -2.791,312.222 11.496,326.084 C25.822,339.956 80.334,342.646 80.334,342.646" fill-opacity="0" stroke="#3C2C1E" stroke-width="10" stroke-linecap="round" stroke-linejoin="round" id="path835"/>
    <path d="M148.596,478.974 L145.442,525.253 C145.442,525.253 129.632,536.391 132.796,542.397 C135.959,548.398 171.779,548.393 177.043,533.823 C182.307,519.252 187.57,477.255 187.57,477.255" fill="#E98647" id="path837"/>
    <path d="M148.596,478.974 L145.442,525.253 C145.442,525.253 129.632,536.391 132.796,542.397 C135.959,548.398 171.779,548.393 177.043,533.823 C182.307,519.252 187.57,477.255 187.57,477.255" fill-opacity="0" stroke="#3C2C1E" stroke-width="10" stroke-linecap="round" stroke-linejoin="round" id="path839"/>
    <path d="M348.684,339.262 L408.82,354.057 C408.82,354.057 414.738,347.148 424.592,348.139 C434.445,349.125 431.507,382.641 412.766,388.554 C394.035,394.467 344.748,372.788 344.748,372.788" fill="#E98647" id="path841"/>
    <path d="M348.684,339.262 L408.82,354.057 C408.82,354.057 414.738,347.148 424.592,348.139 C434.445,349.125 431.507,382.641 412.766,388.554 C394.035,394.467 344.748,372.788 344.748,372.788" fill-opacity="0" stroke="#3C2C1E" stroke-width="10" stroke-linecap="round" stroke-linejoin="round" id="path843"/>
    <path d="M282.58,478.974 L285.735,525.253 C285.735,525.253 301.546,536.391 298.391,542.397 C295.217,548.398 259.396,548.393 254.143,533.823 C248.88,519.252 243.615,477.255 243.615,477.255" fill="#E98647" id="path845"/>
    <path d="M282.58,478.974 L285.735,525.253 C285.735,525.253 301.546,536.391 298.391,542.397 C295.217,548.398 259.396,548.393 254.143,533.823 C248.88,519.252 243.615,477.255 243.615,477.255" fill-opacity="0" stroke="#3C2C1E" stroke-width="10" stroke-linecap="round" stroke-linejoin="round" id="path847"/>
    <path d="M140.939,317.964 C140.939,317.964 94.904,295.527 87.834,299.844 C80.744,304.155 66.584,361.967 72.785,364.555 C78.977,367.148 129.436,371.459 129.436,371.459 C129.436,371.459 124.123,426.684 130.314,426.684 C136.526,426.684 311.799,428.413 314.455,424.96 C317.102,421.508 310.031,374.912 310.031,374.912 L339.25,384.404 C339.25,384.404 371.115,335.219 366.692,330.903 C362.268,326.597 318.88,306.743 318.88,306.743" fill="#50C0E0" id="path849"/>
    <path d="M140.939,317.964 C140.939,317.964 94.904,295.527 87.834,299.844 C80.744,304.155 66.584,361.967 72.785,364.555 C78.977,367.148 129.436,371.459 129.436,371.459 C129.436,371.459 124.123,426.684 130.314,426.684 C136.526,426.684 311.799,428.413 314.455,424.96 C317.102,421.508 310.031,374.912 310.031,374.912 L339.25,384.404 C339.25,384.404 371.115,335.219 366.692,330.903 C362.268,326.597 318.88,306.743 318.88,306.743" fill-opacity="0" stroke="#3C2C1E" stroke-width="10" stroke-linecap="round" stroke-linejoin="round" id="path851"/>
    <path d="M125.862,478.115 C137.863,478.115 200.423,480.678 202.99,479.829 C205.569,478.974 215.002,465.258 215.002,465.258 C215.002,465.258 226.135,483.256 231.281,483.256 C236.418,483.256 314.357,483.994 320.432,480.683 C329.846,475.542 304.143,325.552 304.143,325.552 L278.421,328.12 C278.421,328.12 281.857,402.69 278.421,402.69 C274.992,402.69 154.153,405.263 153.293,401.835 C152.434,398.403 154.143,328.979 154.143,328.979 C154.143,328.979 135.296,324.692 132.727,324.692 C130.158,324.692 113.869,478.115 125.862,478.115" fill="#EECC5A" id="path853"/>
    <path d="M125.862,478.115 C137.863,478.115 200.423,480.678 202.99,479.829 C205.569,478.974 215.002,465.258 215.002,465.258 C215.002,465.258 226.135,483.256 231.281,483.256 C236.418,483.256 314.357,483.994 320.432,480.683 C329.846,475.542 304.143,325.552 304.143,325.552 L278.421,328.12 C278.421,328.12 281.857,402.69 278.421,402.69 C274.992,402.69 154.153,405.263 153.293,401.835 C152.434,398.403 154.143,328.979 154.143,328.979 C154.143,328.979 135.296,324.692 132.727,324.692 C130.158,324.692 113.869,478.115 125.862,478.115 z" fill-opacity="0" stroke="#3C2C1E" stroke-width="10" stroke-linecap="round" stroke-linejoin="round" id="path855"/>
    <path d="M431.496,180.708 C431.496,277.739 339.094,356.411 225.11,356.411 C111.135,356.411 18.723,277.739 18.723,180.708 C18.723,83.671 111.135,5 225.11,5 C339.094,5 431.496,83.671 431.496,180.708" fill="#E98647" id="path857"/>
    <path d="M431.496,180.708 C431.496,277.739 339.094,356.411 225.11,356.411 C111.135,356.411 18.723,277.739 18.723,180.708 C18.723,83.671 111.135,5 225.11,5 C339.094,5 431.496,83.671 431.496,180.708 z" fill-opacity="0" stroke="#3C2C1E" stroke-width="10" stroke-linecap="round" stroke-linejoin="round" id="path859"/>
    <path d="M248.362,44.746 C248.362,52.06 236.184,57.993 221.164,57.993 C206.154,57.993 193.977,52.06 193.977,44.746 C193.977,37.426 206.154,31.499 221.164,31.499 C236.184,31.499 248.362,37.426 248.362,44.746" fill="#4FAA55" id="path861"/>
    <path d="M179.787,166.499 C179.787,195.698 156.115,219.36 126.916,219.36 C97.717,219.36 74.046,195.698 74.046,166.499 C74.046,137.295 97.717,113.632 126.916,113.632 C156.115,113.632 179.787,137.295 179.787,166.499" fill="#ECB853" id="path863"/>
    <path d="M118,134.673 C119.768,138.618 116.135,144.092 109.885,146.88 C103.625,149.682 97.132,148.75 95.373,144.809 C93.596,140.859 97.229,135.386 103.479,132.588 C109.738,129.79 116.232,130.727 118,134.673" fill="#FFFFFE" id="path865"/>
    <path d="M367.737,166.499 C367.737,195.698 344.074,219.36 314.885,219.36 C285.676,219.36 262.014,195.698 262.014,166.499 C262.014,137.295 285.676,113.632 314.885,113.632 C344.074,113.632 367.737,137.295 367.737,166.499" fill="#ECB853" id="path867"/>
    <path d="M305.959,134.673 C307.737,138.618 304.094,144.092 297.854,146.88 C291.604,149.682 285.091,148.75 283.322,144.809 C281.564,140.859 285.197,135.386 291.437,132.588 C297.697,129.79 304.212,130.727 305.959,134.673" fill="#FFFFFE" id="path869"/>
    <path d="M187.61,124.077 C187.61,138.491 180.168,150.181 170.959,150.181 C161.77,150.181 154.328,138.491 154.328,124.077 C154.328,109.653 161.77,97.968 170.959,97.968 C180.168,97.968 187.61,109.653 187.61,124.077" fill="#3C2C1E" id="path871"/>
    <path d="M280.296,124.077 C280.296,138.491 272.844,150.181 263.645,150.181 C254.455,150.181 247.005,138.491 247.005,124.077 C247.005,109.653 254.455,97.968 263.645,97.968 C272.844,97.968 280.296,109.653 280.296,124.077" fill="#3C2C1E" id="path873"/>
    <path d="M156.281,174.326 L273.098,173.027 C273.098,173.027 265.276,235.679 211.76,233.716 C158.235,231.763 156.281,174.326 156.281,174.326" fill="#E05659" id="path875"/>
    <path d="M156.281,174.326 L273.098,173.027 C273.098,173.027 265.276,235.679 211.76,233.716 C158.235,231.763 156.281,174.326 156.281,174.326 z" fill-opacity="0" stroke="#3C2C1E" stroke-width="10" stroke-linecap="round" stroke-linejoin="round" id="path877"/>
    <path d="M113.801,103.549 C113.801,109.829 108.703,114.931 102.414,114.931 C96.135,114.931 91.037,109.829 91.037,103.549 C91.037,97.255 96.135,92.158 102.414,92.158 C108.703,92.158 113.801,97.255 113.801,103.549" fill="#E15F3B" id="path879"/>
    <path d="M388.049,235.566 C388.049,241.85 382.951,246.948 376.662,246.948 C370.373,246.948 365.276,241.85 365.276,235.566 C365.276,229.272 370.373,224.175 376.662,224.175 C382.951,224.175 388.049,229.272 388.049,235.566" fill="#E15F3B" id="path881"/>
    <path d="M348.069,80.307 C348.069,86.591 342.971,91.694 336.682,91.694 C330.393,91.694 325.296,86.591 325.296,80.307 C325.296,74.018 330.393,68.916 336.682,68.916 C342.971,68.916 348.069,74.018 348.069,80.307" fill="#E15F3B" id="path883"/>
    <path d="M332.268,294.126 C332.268,300.415 327.171,305.513 320.882,305.513 C314.592,305.513 309.505,300.415 309.505,294.126 C309.505,287.837 314.592,282.739 320.882,282.739 C327.171,282.739 332.268,287.837 332.268,294.126" fill="#E15F3B" id="path885"/>
    <path d="M241.174,264.38 C241.174,270.664 236.067,275.762 229.778,275.762 C223.498,275.762 218.401,270.664 218.401,264.38 C218.401,258.091 223.498,252.993 229.778,252.993 C236.067,252.993 241.174,258.091 241.174,264.38" fill="#E15F3B" id="path887"/>
    <path d="M71.048,218.823 C71.048,225.112 65.939,230.21 59.66,230.21 C53.371,230.21 48.273,225.112 48.273,218.823 C48.273,212.534 53.371,207.431 59.66,207.431 C65.939,207.431 71.048,212.534 71.048,218.823" fill="#E15F3B" id="path889"/>
    <path d="M137.053,293.198 C137.053,299.487 131.955,304.59 125.666,304.59 C119.377,304.59 114.289,299.487 114.289,293.198 C114.289,286.909 119.377,281.806 125.666,281.806 C131.955,281.806 137.053,286.909 137.053,293.198" fill="#E15F3B" id="path891"/>
  </g>
</svg>
